<mxfile host="Electron" modified="2024-07-15T13:38:56.854Z" agent="Mozilla/5.0 (Macintosh; Intel Mac OS X 10_15_7) AppleWebKit/537.36 (KHTML, like Gecko) draw.io/24.6.4 Chrome/124.0.6367.207 Electron/30.0.6 Safari/537.36" etag="eyu_ynkC2wEofXldkPop" version="24.6.4" type="device">
  <diagram name="customerauthentication" id="wAtL0JLXeKaF_xJ_1XsA">
    <mxGraphModel dx="2049" dy="1220" grid="1" gridSize="10" guides="1" tooltips="1" connect="1" arrows="1" fold="1" page="1" pageScale="1" pageWidth="827" pageHeight="1169" math="0" shadow="0">
      <root>
        <mxCell id="0" />
        <mxCell id="1" parent="0" />
        <mxCell id="VXBLDth4Z-EhQU2-aXmC-19" value="" style="rounded=0;whiteSpace=wrap;html=1;fillColor=#ffe6cc;strokeColor=#d79b00;" vertex="1" parent="1">
          <mxGeometry x="890" y="330" width="500" height="750" as="geometry" />
        </mxCell>
        <mxCell id="VXBLDth4Z-EhQU2-aXmC-20" style="edgeStyle=orthogonalEdgeStyle;rounded=0;orthogonalLoop=1;jettySize=auto;html=1;entryX=0;entryY=0.5;entryDx=0;entryDy=0;" edge="1" parent="1" source="5dRny-T6z-p70ULrLOng-2" target="VXBLDth4Z-EhQU2-aXmC-19">
          <mxGeometry relative="1" as="geometry" />
        </mxCell>
        <mxCell id="5dRny-T6z-p70ULrLOng-2" value="&lt;b&gt;&lt;font style=&quot;font-size: 16px;&quot;&gt;BFF-Ecommerce&lt;/font&gt;&lt;/b&gt;" style="sketch=0;points=[[0,0,0],[0.25,0,0],[0.5,0,0],[0.75,0,0],[1,0,0],[0,1,0],[0.25,1,0],[0.5,1,0],[0.75,1,0],[1,1,0],[0,0.25,0],[0,0.5,0],[0,0.75,0],[1,0.25,0],[1,0.5,0],[1,0.75,0]];outlineConnect=0;fontColor=#232F3E;fillColor=#ED7100;strokeColor=#ffffff;dashed=0;verticalLabelPosition=bottom;verticalAlign=top;align=center;html=1;fontSize=12;fontStyle=0;aspect=fixed;shape=mxgraph.aws4.resourceIcon;resIcon=mxgraph.aws4.ec2;" parent="1" vertex="1">
          <mxGeometry x="520" y="666" width="78" height="78" as="geometry" />
        </mxCell>
        <mxCell id="VXBLDth4Z-EhQU2-aXmC-13" style="edgeStyle=orthogonalEdgeStyle;rounded=0;orthogonalLoop=1;jettySize=auto;html=1;exitX=1;exitY=0.5;exitDx=0;exitDy=0;exitPerimeter=0;" edge="1" parent="1" source="5dRny-T6z-p70ULrLOng-3" target="5dRny-T6z-p70ULrLOng-49">
          <mxGeometry relative="1" as="geometry" />
        </mxCell>
        <mxCell id="5dRny-T6z-p70ULrLOng-3" value="&lt;b&gt;&lt;font style=&quot;font-size: 16px;&quot;&gt;customerauthentication&lt;/font&gt;&lt;/b&gt;" style="sketch=0;points=[[0,0,0],[0.25,0,0],[0.5,0,0],[0.75,0,0],[1,0,0],[0,1,0],[0.25,1,0],[0.5,1,0],[0.75,1,0],[1,1,0],[0,0.25,0],[0,0.5,0],[0,0.75,0],[1,0.25,0],[1,0.5,0],[1,0.75,0]];outlineConnect=0;fontColor=#232F3E;fillColor=#ED7100;strokeColor=#ffffff;dashed=0;verticalLabelPosition=bottom;verticalAlign=top;align=center;html=1;fontSize=12;fontStyle=0;aspect=fixed;shape=mxgraph.aws4.resourceIcon;resIcon=mxgraph.aws4.ec2;" parent="1" vertex="1">
          <mxGeometry x="970" y="370" width="78" height="78" as="geometry" />
        </mxCell>
        <mxCell id="5dRny-T6z-p70ULrLOng-11" style="edgeStyle=orthogonalEdgeStyle;rounded=0;orthogonalLoop=1;jettySize=auto;html=1;" parent="1" source="5dRny-T6z-p70ULrLOng-10" target="5dRny-T6z-p70ULrLOng-2" edge="1">
          <mxGeometry relative="1" as="geometry" />
        </mxCell>
        <mxCell id="5dRny-T6z-p70ULrLOng-10" value="&lt;b&gt;&lt;font style=&quot;font-size: 16px;&quot;&gt;API-GATEWAY&lt;/font&gt;&lt;/b&gt;" style="sketch=0;points=[[0,0,0],[0.25,0,0],[0.5,0,0],[0.75,0,0],[1,0,0],[0,1,0],[0.25,1,0],[0.5,1,0],[0.75,1,0],[1,1,0],[0,0.25,0],[0,0.5,0],[0,0.75,0],[1,0.25,0],[1,0.5,0],[1,0.75,0]];outlineConnect=0;fontColor=#232F3E;fillColor=#E7157B;strokeColor=#ffffff;dashed=0;verticalLabelPosition=bottom;verticalAlign=top;align=center;html=1;fontSize=12;fontStyle=0;aspect=fixed;shape=mxgraph.aws4.resourceIcon;resIcon=mxgraph.aws4.api_gateway;" parent="1" vertex="1">
          <mxGeometry x="280" y="666" width="78" height="78" as="geometry" />
        </mxCell>
        <mxCell id="5dRny-T6z-p70ULrLOng-24" style="edgeStyle=orthogonalEdgeStyle;rounded=0;orthogonalLoop=1;jettySize=auto;html=1;" parent="1" source="5dRny-T6z-p70ULrLOng-12" target="5dRny-T6z-p70ULrLOng-19" edge="1">
          <mxGeometry relative="1" as="geometry" />
        </mxCell>
        <mxCell id="5dRny-T6z-p70ULrLOng-12" value="" style="verticalLabelPosition=bottom;aspect=fixed;html=1;shape=mxgraph.salesforce.web;" parent="1" vertex="1">
          <mxGeometry x="280" y="370" width="80" height="63.2" as="geometry" />
        </mxCell>
        <mxCell id="5dRny-T6z-p70ULrLOng-21" style="edgeStyle=orthogonalEdgeStyle;rounded=0;orthogonalLoop=1;jettySize=auto;html=1;exitX=0.5;exitY=1;exitDx=0;exitDy=0;exitPerimeter=0;" parent="1" source="5dRny-T6z-p70ULrLOng-19" target="5dRny-T6z-p70ULrLOng-10" edge="1">
          <mxGeometry relative="1" as="geometry" />
        </mxCell>
        <mxCell id="5dRny-T6z-p70ULrLOng-19" value="&lt;b&gt;Cloudfront&lt;/b&gt;" style="sketch=0;points=[[0,0,0],[0.25,0,0],[0.5,0,0],[0.75,0,0],[1,0,0],[0,1,0],[0.25,1,0],[0.5,1,0],[0.75,1,0],[1,1,0],[0,0.25,0],[0,0.5,0],[0,0.75,0],[1,0.25,0],[1,0.5,0],[1,0.75,0]];outlineConnect=0;fontColor=#232F3E;fillColor=#8C4FFF;strokeColor=#ffffff;dashed=0;verticalLabelPosition=bottom;verticalAlign=top;align=center;html=1;fontSize=12;fontStyle=0;aspect=fixed;shape=mxgraph.aws4.resourceIcon;resIcon=mxgraph.aws4.cloudfront;" parent="1" vertex="1">
          <mxGeometry x="280" y="506.5" width="78" height="78" as="geometry" />
        </mxCell>
        <mxCell id="5dRny-T6z-p70ULrLOng-49" value="&lt;b&gt;&lt;font style=&quot;font-size: 16px;&quot;&gt;database&lt;/font&gt;&lt;/b&gt;" style="sketch=0;points=[[0,0,0],[0.25,0,0],[0.5,0,0],[0.75,0,0],[1,0,0],[0,1,0],[0.25,1,0],[0.5,1,0],[0.75,1,0],[1,1,0],[0,0.25,0],[0,0.5,0],[0,0.75,0],[1,0.25,0],[1,0.5,0],[1,0.75,0]];outlineConnect=0;fontColor=#232F3E;fillColor=#C925D1;strokeColor=#ffffff;dashed=0;verticalLabelPosition=bottom;verticalAlign=top;align=center;html=1;fontSize=12;fontStyle=0;aspect=fixed;shape=mxgraph.aws4.resourceIcon;resIcon=mxgraph.aws4.rds;" parent="1" vertex="1">
          <mxGeometry x="1260" y="370" width="78" height="78" as="geometry" />
        </mxCell>
        <mxCell id="VXBLDth4Z-EhQU2-aXmC-14" style="edgeStyle=orthogonalEdgeStyle;rounded=0;orthogonalLoop=1;jettySize=auto;html=1;" edge="1" parent="1" source="lHiSPcr_xn4c7chXWhxx-1" target="lHiSPcr_xn4c7chXWhxx-2">
          <mxGeometry relative="1" as="geometry" />
        </mxCell>
        <mxCell id="lHiSPcr_xn4c7chXWhxx-1" value="&lt;span style=&quot;font-size: 16px;&quot;&gt;&lt;b&gt;itemmanagement&lt;/b&gt;&lt;/span&gt;" style="sketch=0;points=[[0,0,0],[0.25,0,0],[0.5,0,0],[0.75,0,0],[1,0,0],[0,1,0],[0.25,1,0],[0.5,1,0],[0.75,1,0],[1,1,0],[0,0.25,0],[0,0.5,0],[0,0.75,0],[1,0.25,0],[1,0.5,0],[1,0.75,0]];outlineConnect=0;fontColor=#232F3E;fillColor=#ED7100;strokeColor=#ffffff;dashed=0;verticalLabelPosition=bottom;verticalAlign=top;align=center;html=1;fontSize=12;fontStyle=0;aspect=fixed;shape=mxgraph.aws4.resourceIcon;resIcon=mxgraph.aws4.ec2;" parent="1" vertex="1">
          <mxGeometry x="970" y="560" width="78" height="78" as="geometry" />
        </mxCell>
        <mxCell id="lHiSPcr_xn4c7chXWhxx-2" value="&lt;span style=&quot;font-size: 16px;&quot;&gt;&lt;b&gt;database&lt;/b&gt;&lt;/span&gt;" style="sketch=0;points=[[0,0,0],[0.25,0,0],[0.5,0,0],[0.75,0,0],[1,0,0],[0,1,0],[0.25,1,0],[0.5,1,0],[0.75,1,0],[1,1,0],[0,0.25,0],[0,0.5,0],[0,0.75,0],[1,0.25,0],[1,0.5,0],[1,0.75,0]];outlineConnect=0;fontColor=#232F3E;fillColor=#C925D1;strokeColor=#ffffff;dashed=0;verticalLabelPosition=bottom;verticalAlign=top;align=center;html=1;fontSize=12;fontStyle=0;aspect=fixed;shape=mxgraph.aws4.resourceIcon;resIcon=mxgraph.aws4.rds;" parent="1" vertex="1">
          <mxGeometry x="1260" y="560" width="78" height="78" as="geometry" />
        </mxCell>
        <mxCell id="VXBLDth4Z-EhQU2-aXmC-16" style="edgeStyle=orthogonalEdgeStyle;rounded=0;orthogonalLoop=1;jettySize=auto;html=1;" edge="1" parent="1" source="VXBLDth4Z-EhQU2-aXmC-1" target="VXBLDth4Z-EhQU2-aXmC-15">
          <mxGeometry relative="1" as="geometry" />
        </mxCell>
        <mxCell id="VXBLDth4Z-EhQU2-aXmC-1" value="&lt;span style=&quot;font-size: 16px;&quot;&gt;&lt;b&gt;shoppingcart&lt;/b&gt;&lt;/span&gt;" style="sketch=0;points=[[0,0,0],[0.25,0,0],[0.5,0,0],[0.75,0,0],[1,0,0],[0,1,0],[0.25,1,0],[0.5,1,0],[0.75,1,0],[1,1,0],[0,0.25,0],[0,0.5,0],[0,0.75,0],[1,0.25,0],[1,0.5,0],[1,0.75,0]];outlineConnect=0;fontColor=#232F3E;fillColor=#ED7100;strokeColor=#ffffff;dashed=0;verticalLabelPosition=bottom;verticalAlign=top;align=center;html=1;fontSize=12;fontStyle=0;aspect=fixed;shape=mxgraph.aws4.resourceIcon;resIcon=mxgraph.aws4.ec2;" vertex="1" parent="1">
          <mxGeometry x="970" y="750" width="78" height="78" as="geometry" />
        </mxCell>
        <mxCell id="VXBLDth4Z-EhQU2-aXmC-18" style="edgeStyle=orthogonalEdgeStyle;rounded=0;orthogonalLoop=1;jettySize=auto;html=1;exitX=1;exitY=0.5;exitDx=0;exitDy=0;exitPerimeter=0;" edge="1" parent="1" source="VXBLDth4Z-EhQU2-aXmC-11" target="VXBLDth4Z-EhQU2-aXmC-17">
          <mxGeometry relative="1" as="geometry" />
        </mxCell>
        <mxCell id="VXBLDth4Z-EhQU2-aXmC-11" value="&lt;span style=&quot;font-size: 16px;&quot;&gt;&lt;b&gt;payments&lt;/b&gt;&lt;/span&gt;" style="sketch=0;points=[[0,0,0],[0.25,0,0],[0.5,0,0],[0.75,0,0],[1,0,0],[0,1,0],[0.25,1,0],[0.5,1,0],[0.75,1,0],[1,1,0],[0,0.25,0],[0,0.5,0],[0,0.75,0],[1,0.25,0],[1,0.5,0],[1,0.75,0]];outlineConnect=0;fontColor=#232F3E;fillColor=#ED7100;strokeColor=#ffffff;dashed=0;verticalLabelPosition=bottom;verticalAlign=top;align=center;html=1;fontSize=12;fontStyle=0;aspect=fixed;shape=mxgraph.aws4.resourceIcon;resIcon=mxgraph.aws4.ec2;" vertex="1" parent="1">
          <mxGeometry x="970" y="940" width="78" height="78" as="geometry" />
        </mxCell>
        <mxCell id="VXBLDth4Z-EhQU2-aXmC-15" value="&lt;span style=&quot;font-size: 16px;&quot;&gt;&lt;b&gt;database&lt;/b&gt;&lt;/span&gt;" style="sketch=0;points=[[0,0,0],[0.25,0,0],[0.5,0,0],[0.75,0,0],[1,0,0],[0,1,0],[0.25,1,0],[0.5,1,0],[0.75,1,0],[1,1,0],[0,0.25,0],[0,0.5,0],[0,0.75,0],[1,0.25,0],[1,0.5,0],[1,0.75,0]];outlineConnect=0;fontColor=#232F3E;fillColor=#C925D1;strokeColor=#ffffff;dashed=0;verticalLabelPosition=bottom;verticalAlign=top;align=center;html=1;fontSize=12;fontStyle=0;aspect=fixed;shape=mxgraph.aws4.resourceIcon;resIcon=mxgraph.aws4.rds;" vertex="1" parent="1">
          <mxGeometry x="1260" y="750" width="78" height="78" as="geometry" />
        </mxCell>
        <mxCell id="VXBLDth4Z-EhQU2-aXmC-17" value="&lt;span style=&quot;font-size: 16px;&quot;&gt;&lt;b&gt;database&lt;/b&gt;&lt;/span&gt;" style="sketch=0;points=[[0,0,0],[0.25,0,0],[0.5,0,0],[0.75,0,0],[1,0,0],[0,1,0],[0.25,1,0],[0.5,1,0],[0.75,1,0],[1,1,0],[0,0.25,0],[0,0.5,0],[0,0.75,0],[1,0.25,0],[1,0.5,0],[1,0.75,0]];outlineConnect=0;fontColor=#232F3E;fillColor=#C925D1;strokeColor=#ffffff;dashed=0;verticalLabelPosition=bottom;verticalAlign=top;align=center;html=1;fontSize=12;fontStyle=0;aspect=fixed;shape=mxgraph.aws4.resourceIcon;resIcon=mxgraph.aws4.rds;" vertex="1" parent="1">
          <mxGeometry x="1250" y="940" width="78" height="78" as="geometry" />
        </mxCell>
        <mxCell id="VXBLDth4Z-EhQU2-aXmC-21" value="&lt;b&gt;&lt;font style=&quot;font-size: 16px;&quot;&gt;Spring Security&lt;/font&gt;&lt;/b&gt;" style="outlineConnect=0;dashed=0;verticalLabelPosition=bottom;verticalAlign=top;align=center;html=1;shape=mxgraph.aws3.permissions_2;fillColor=#D2D3D3;gradientColor=none;" vertex="1" parent="1">
          <mxGeometry x="760" y="673.5" width="46.5" height="63" as="geometry" />
        </mxCell>
      </root>
    </mxGraphModel>
  </diagram>
</mxfile>
